<svg xmlns:dc="http://purl.org/dc/elements/1.1/" xmlns:cc="http://creativecommons.org/ns#" xmlns:rdf="http://www.w3.org/1999/02/22-rdf-syntax-ns#" xmlns:svg="http://www.w3.org/2000/svg" xmlns="http://www.w3.org/2000/svg" xmlns:sodipodi="http://sodipodi.sourceforge.net/DTD/sodipodi-0.dtd" xmlns:inkscape="http://www.inkscape.org/namespaces/inkscape" version="1.1" sodipodi:docname="ohw.svg" inkscape:version="0.91 r13725" width="371.049" height="371.04903" enable-background="new 0 0 371.049 319.942" xml:space="preserve" style=""><rect id="backgroundrect" width="100%" height="100%" x="0" y="0" fill="none" stroke="none"/><metadata id="metadata55"><rdf:RDF><cc:Work rdf:about=""><dc:format>image/svg+xml</dc:format><dc:type rdf:resource="http://purl.org/dc/dcmitype/StillImage"/><dc:title/></cc:Work></rdf:RDF></metadata><defs id="defs53"/><sodipodi:namedview pagecolor="#ffffff" bordercolor="#666666" id="base" borderopacity="1.0" inkscape:pageopacity="0.0" inkscape:zoom="1.226764" inkscape:pageshadow="2" inkscape:cx="225.7102" inkscape:cy="150.2774" inkscape:document-units="px" inkscape:current-layer="layer1" showgrid="false" inkscape:window-width="1722" inkscape:window-height="1016" inkscape:window-x="198" inkscape:window-y="27" inkscape:window-maximized="0" fit-margin-top="50" fit-margin-left="50" fit-margin-right="50" fit-margin-bottom="50"/><g class="currentLayer" style=""><title>Layer 1</title><g id="layer1" inkscape:groupmode="layer" inkscape:label="Layer 1" class=""><path id="path3024" inkscape:connector-curvature="0" d="m272.57048999023436,137.9922637939453 l-2.0671799182891846,-0.3875400125980377 c-0.5275300145149231,-0.09709999710321426 -1.3904900550842285,-0.25900998711586 -1.9179999828338623,-0.3580999970436096 l-17.62468910217285,-3.2985000610351562 c-0.5275200009346008,-0.09910000115633011 -1.1028300523757935,-0.5965099930763245 -1.2783499956130981,-1.1066999435424805 l-6.6257100105285645,-15.549610137939453 c-0.24669000506401062,-0.4797700047492981 -0.19891999661922455,-1.235219955444336 0.10434000194072723,-1.68163001537323 l10.299839973449707,-15.1012601852417 c0.3032500147819519,-0.4454199969768524 0.8005499839782715,-1.1734100580215454 1.1028200387954712,-1.6188299655914307 l1.1905900239944458,-1.744420051574707 c0.30129000544548035,-0.44444000720977783 0.23986999690532684,-1.1204299926757812 -0.13944999873638153,-1.502079963684082 l-1.4860299825668335,-1.49521005153656 l-1.3787699937820435,-1.3872900009155273 l-4.308899879455566,-4.335519790649414 l-1.3787800073623657,-1.3873000144958496 l-4.306950092315674,-4.335529804229736 l-1.3797500133514404,-1.388260006904602 l-1.4870100021362305,-1.495229959487915 c-0.3783299922943115,-0.38165000081062317 -1.0511399507522583,-0.44444000720977783 -1.492859959602356,-0.13931000232696533 l-1.7337000370025635,1.1969499588012695 c-0.44269001483917236,0.3061099946498871 -1.166200041770935,0.8045200109481812 -1.6079200506210327,1.1106300354003906 l-15.330309867858887,10.586179733276367 c-0.44172000885009766,0.3061000108718872 -1.197409987449646,0.36006999015808105 -1.6791000366210938,0.12263000011444092 l-14.982210159301758,-6.17018985748291 c-0.5089899897575378,-0.1697400063276291 -1.004330039024353,-0.7427099943161011 -1.103790044784546,-1.272510051727295 l-3.417680025100708,-18.48217010498047 c-0.09749999642372131,-0.5307700037956238 -0.25936999917030334,-1.3990600109100342 -0.35589998960494995,-1.9288500547409058 l-0.38613998889923096,-2.0799601078033447 c-0.09749999642372131,-0.5297999978065491 -0.6172299981117249,-0.963450014591217 -1.1525499820709229,-0.963450014591217 l-2.102289915084839,0 l-1.9501800537109375,0 l-6.094289779663086,0 l-1.950160026550293,0 l-6.094289779663086,0 l-1.9501800537109375,0 l-2.1013100147247314,0 c-0.536300003528595,0 -1.0550400018692017,0.4336499869823456 -1.1525599956512451,0.9644299745559692 l-0.3851499855518341,2.078979969024658 c-0.09849999845027924,0.5297899842262268 -0.25839999318122864,1.3980799913406372 -0.3559100031852722,1.9288500547409058 l-3.4186599254608154,18.48217010498047 c-0.09849999845027924,0.5297999978065491 -0.5938299894332886,1.1027699708938599 -1.103790044784546,1.272510051727295 l-14.982210159301758,6.17018985748291 c-0.481689989566803,0.23744000494480133 -1.237380027770996,0.1834699958562851 -1.6790900230407715,-0.12263000011444092 l-15.330309867858887,-10.586179733276367 c-0.44269999861717224,-0.3061099946498871 -1.1662100553512573,-0.8045200109481812 -1.6079299449920654,-1.1106300354003906 l-1.7337000370025635,-1.1969499588012695 c-0.44172000885009766,-0.3051300048828125 -1.1145199537277222,-0.24233999848365784 -1.4928499460220337,0.13931000232696533 l-1.4870100021362305,1.495229959487915 l-1.3787699937820435,1.388260006904602 l-4.308909893035889,4.336510181427002 l-1.3787800073623657,1.3873000144958496 l-4.307919979095459,4.334539890289307 l-1.3787800073623657,1.3872900009155273 l-1.4860299825668335,1.49521005153656 c-0.3793100118637085,0.38165000081062317 -0.4417099952697754,1.0576399564743042 -0.13845999538898468,1.502079963684082 l1.1895999908447266,1.744420051574707 c0.3022800087928772,0.4454199969768524 0.7995700240135193,1.1734100580215454 1.1028200387954712,1.6188299655914307 l10.299850463867188,15.1012601852417 c0.3032500147819519,0.44641000032424927 0.3500500023365021,1.201859951019287 0.10433000326156616,1.68163001537323 l-6.624740123748779,15.549610137939453 c-0.17648999392986298,0.5101900100708008 -0.7517899870872498,1.0076099634170532 -1.2793099880218506,1.1066999435424805 l-17.62468910217285,3.2985000610351562 c-0.5275200009346008,0.09910000115633011 -1.3904800415039062,0.26096999645233154 -1.91798996925354,0.3580999970436096 l-2.067189931869507,0.3875400125980377 c-0.5275200009346008,0.10006999969482422 -0.9585099816322327,0.6210399866104126 -0.9585099816322327,1.1616400480270386 l0.0009699999936856329,2.115269899368286 l0,1.9622199535369873 l0,6.131939888000488 l0,1.9622199535369873 l0,6.129980087280273 l0,1.9622299671173096 l0,2.1142899990081787 c0,0.5396199822425842 0.43195998668670654,1.062540054321289 0.9594799876213074,1.1606500148773193 l2.0662100315093994,0.38655999302864075 c0.5275200009346008,0.09910000115633011 1.390470027923584,0.2609800100326538 1.9179999828338623,0.36006999015808105 l17.094240188598633,3.2003800868988037 c0.5275099873542786,0.09809999912977219 1.0911200046539307,0.6004400253295898 1.2520099878311157,1.1155200004577637 l6.579880237579346,16.540550231933594 c0.23597000539302826,0.4836899936199188 0.18039999902248383,1.246019959449768 -0.12382999807596207,1.690459966659546 l-9.67969036102295,14.192740440368652 c-0.3042300045490265,0.4454199969768524 -0.8015199899673462,1.1734199523925781 -1.103790044784546,1.6168700456619263 l-1.1905900239944458,1.7463799715042114 c-0.30226999521255493,0.4444499909877777 -0.24085000157356262,1.1204299926757812 0.13846999406814575,1.5020899772644043 l1.4869999885559082,1.49521005153656 l1.3787699937820435,1.387279987335205 l4.3108601570129395,4.337490081787109 l1.3787699937820435,1.3873000144958496 l4.306960105895996,4.332580089569092 l1.3787699937820435,1.3882700204849243 l1.4879900217056274,1.49521005153656 c0.3783299922943115,0.3806700110435486 1.0511300563812256,0.4434700012207031 1.4928499460220337,0.13833999633789062 l1.7327300310134888,-1.195970058441162 c0.4417099952697754,-0.3051300048828125 1.1652300357818604,-0.8054900169372559 1.6079200506210327,-1.1096400022506714 l13.799420356750488,-9.528550148010254 c0.44172000885009766,-0.30511999130249023 1.1818100214004517,-0.32965001463890076 1.643030047416687,-0.05689999833703041 l2.864799976348877,1.6227600574493408 c0.4719400107860565,0.25508999824523926 1.249079942703247,0.6642199754714966 1.7268799543380737,0.9094899892807007 l2.967180013656616,1.5285700559616089 c0.47878000140190125,0.2452699989080429 1.036520004272461,0.03819999843835831 1.2422699928283691,-0.4601399898529053 l1.2734500169754028,-3.0983500480651855 c0.2057500034570694,-0.4984000027179718 0.5411800146102905,-1.3146899938583374 0.7469199895858765,-1.8130899667739868 l11.971139907836914,-29.108579635620117 c0.2057500034570694,-0.49643999338150024 0.5411800146102905,-1.3136999607086182 0.7469199895858765,-1.8111300468444824 l0.847350001335144,-2.0622899532318115 c0.2057500034570694,-0.4984099864959717 -0.0009599999757483602,-1.1361299753189087 -0.4582900106906891,-1.4177099466323853 l-1.8916699886322021,-1.16457998752594 c-0.34907999634742737,-0.21387000381946564 -0.8239399790763855,-0.5837600231170654 -1.1954599618911743,-0.9212599992752075 c-6.824629783630371,-4.398320198059082 -11.350970268249512,-12.09022045135498 -11.350970268249512,-20.848609924316406 c0,-13.66882038116455 11.012619972229004,-24.74949073791504 24.59654998779297,-24.74949073791504 c13.58491039276123,0 24.597530364990234,11.080670356750488 24.597530364990234,24.74949073791504 c0,8.759369850158691 -4.52731990814209,16.45029067993164 -11.351949691772461,20.848609924316406 c-0.37053000926971436,0.3375000059604645 -0.8454099893569946,0.7064099907875061 -1.1954599618911743,0.9212599992752075 l-1.8906999826431274,1.16457998752594 c-0.45633000135421753,0.28158000111579895 -0.6630499958992004,0.9193000197410583 -0.4582900106906891,1.4177099466323853 l0.848330020904541,2.0622899532318115 c0.20476999878883362,0.4984099864959717 0.5401999950408936,1.3146899938583374 0.7449700236320496,1.8111300468444824 l11.971139907836914,29.108579635620117 c0.20574000477790833,0.4984000027179718 0.5411700010299683,1.3146899938583374 0.7459400296211243,1.8130899667739868 l1.2754100561141968,3.0983500480651855 c0.20574000477790833,0.4984000027179718 0.7634900212287903,0.7054100036621094 1.2422599792480469,0.4601399898529053 l2.966209888458252,-1.5285700559616089 c0.4797399938106537,-0.2452699989080429 1.2559200525283813,-0.6543999910354614 1.7278599739074707,-0.9094899892807007 l2.8638200759887695,-1.6227600574493408 c0.46219998598098755,-0.2727400064468384 1.2022900581359863,-0.24821999669075012 1.6440000534057617,0.05689999833703041 l13.799429893493652,9.528550148010254 c0.4417099952697754,0.3041499853134155 1.1671700477600098,0.8045099973678589 1.6069400310516357,1.1096400022506714 l1.7346800565719604,1.195970058441162 c0.4417099952697754,0.3051300048828125 1.1145199537277222,0.24232999980449677 1.492859959602356,-0.13833999633789062 l1.4860299825668335,-1.49521005153656 l1.3797500133514404,-1.3882700204849243 l4.306950092315674,-4.334539890289307 l1.3787800073623657,-1.3873000144958496 l4.310850143432617,-4.335529804229736 l1.3787699937820435,-1.387279987335205 l1.4879900217056274,-1.49521005153656 c0.3783299922943115,-0.38067999482154846 0.4407399892807007,-1.0576399564743042 0.1374800056219101,-1.5020899772644043 l-1.1905699968338013,-1.7463799715042114 c-0.3032599985599518,-0.443450003862381 -0.8005499839782715,-1.1714500188827515 -1.1038099527359009,-1.6168700456619263 l-9.680660247802734,-14.192740440368652 c-0.30324000120162964,-0.44444000720977783 -0.3598000109195709,-1.2057900428771973 -0.12382999807596207,-1.690459966659546 l6.57988977432251,-16.540550231933594 c0.16186000406742096,-0.5150799751281738 0.7254599928855896,-1.0174100399017334 1.2519999742507935,-1.1155200004577637 l17.095230102539062,-3.2003800868988037 c0.5275099873542786,-0.09910000115633011 1.390470027923584,-0.2609800100326538 1.9179799556732178,-0.36006999015808105 l2.065239906311035,-0.38655999302864075 c0.5275200009346008,-0.09809999912977219 0.9585099816322327,-0.6210299730300903 0.9585099816322327,-1.1606500148773193 l0,-2.1142899990081787 l0,-1.9622299671173096 l0,-6.129980087280273 l0,-1.9622199535369873 l0.0009599999757483602,-6.131939888000488 l0,-1.9622199535369873 l0.0009699999936856329,-2.115269899368286 c0.0009599999757483602,-0.5406000018119812 -0.43000999093055725,-1.0615700483322144 -0.9575300216674805,-1.1616400480270386 " style="fill:#ffffff;fill-opacity:1"/><path id="path3028" inkscape:connector-curvature="0" d="m248.2517033691406,138.4631805419922 c-1.7696199417114258,-8.129150390625 -5.070230007171631,-15.685959815979004 -9.597430229187012,-22.34379005432129 l13.72622013092041,-20.004859924316406 l-5.898409843444824,-5.89739990234375 l-5.8984198570251465,-5.900440216064453 l-20.269790649414062,13.911279678344727 c-6.584020137786865,-4.254179954528809 -13.986109733581543,-7.349510192871094 -21.93021011352539,-8.964420318603516 l0.0020000000949949026,-0.0010000000474974513 l-4.519120216369629,-24.29442024230957 l-8.341509819030762,0 l-8.342519760131836,0 l-4.520130157470703,24.29442024230957 l0.003000000026077032,0.0010000000474974513 c-7.9440999031066895,1.6149100065231323 -15.347200393676758,4.710239887237549 -21.93121910095215,8.964420318603516 l-20.267770767211914,-13.911279678344727 l-5.899429798126221,5.900440216064453 l-5.898409843444824,5.89739990234375 l13.727239608764648,20.004859924316406 c-4.529230117797852,6.657830238342285 -7.828829765319824,14.214639663696289 -9.59844970703125,22.34379005432129 l-23.48040008544922,4.367430210113525 l0.0010000000474974513,8.34354019165039 l0,8.340490341186523 l23.04659080505371,4.289569854736328 c1.5552500486373901,8.513420104980469 4.7931599617004395,16.435270309448242 9.350700378417969,23.417709350585938 l-13.047699928283691,19.0118408203125 l5.899419784545898,5.898409843444824 l5.8984198570251465,5.8984198570251465 l18.76106071472168,-12.87479019165039 c2.2711899280548096,1.5582799911499023 4.643499851226807,2.97802996635437 7.1108598709106445,4.240029811859131 l13.18927001953125,-31.86944007873535 c-8.82588005065918,-5.395840167999268 -14.717220306396484,-15.121700286865234 -14.717220306396484,-26.225839614868164 c0,-16.963119506835938 13.752519607543945,-30.715639114379883 30.716650009155273,-30.715639114379883 c16.96109962463379,0 30.714630126953125,13.752519607543945 30.714630126953125,30.715639114379883 c0,11.104140281677246 -5.890329837799072,20.829999923706055 -14.718230247497559,26.225839614868164 l13.188260078430176,31.86944007873535 c2.467360019683838,-1.2619999647140503 4.839670181274414,-2.6817500591278076 7.1108598709106445,-4.240029811859131 l18.762069702148438,12.87479019165039 l5.8984198570251465,-5.8984198570251465 l5.900430202484131,-5.898409843444824 l-13.048709869384766,-19.0118408203125 c4.556529998779297,-6.982439994812012 7.795450210571289,-14.904290199279785 9.351710319519043,-23.417709350585938 l23.04659080505371,-4.289569854736328 l0,-8.340490341186523 l0,-8.34354019165039 l-23.48040008544922,-4.367430210113525 z" style="fill:#ffffff;fill-opacity:1"/></g></g></svg>